<svg id="Layer_1" data-name="Layer 1" xmlns="http://www.w3.org/2000/svg" viewBox="0 0 280.01 197.93"><defs><style>.cls-1{fill:#139457;}.cls-2{fill:#183761;}.cls-3{fill:#139356;}.cls-4{fill:#19355f;}</style></defs><path class="cls-1" d="M361.83,416c-.29-.29-15.8-16-31-31.17a17.13,17.13,0,0,0-2.83,2.12c-1,.93-2,1.86-3.14,2.74-2.42,1.9-2.65,2.24-3.92,3.24a13.19,13.19,0,0,1-8.48,2.63c-3.65,0-7.3,0-10.95,0-.51,0-1,.13-1.53.16-1.93.13-3,1.66-4.2,2.79-2.39,2.21-4.59,4.63-6.84,7a3.16,3.16,0,0,0-.91,3.14,3.87,3.87,0,0,0,6.47,1.85c1.68-1.55,3.27-3.19,4.92-4.78a5.59,5.59,0,0,1,8.11.15c1.79,1.86,3.59,3.71,5.44,5.52,3.91,3.83,8,7.48,11.74,11.49a11.53,11.53,0,0,0,9.15,3.77h10.73c3.87,0,7.75,0,11.62,0a7.49,7.49,0,0,0,6-2.34,8.09,8.09,0,0,0,2-5.09,1.89,1.89,0,0,0-.54-1.37Z" transform="translate(-166.24 -304.57)"/><path class="cls-2" d="M301.11,368.39h-6.43v6.53h6.43Z" transform="translate(-166.24 -304.57)"/><path class="cls-2" d="M303.51,368.4V375h6.4V368.4Z" transform="translate(-166.24 -304.57)"/><path class="cls-2" d="M301.14,377.35h-6.45v6.46h6.45Z" transform="translate(-166.24 -304.57)"/><path class="cls-2" d="M303.51,383.81h6.42v-6.45h-6.42Z" transform="translate(-166.24 -304.57)"/><path class="cls-2" d="M286.94,345.23h0q0-16.43,0-32.86c0-4.62-3.09-7.76-7.68-7.77q-11.21,0-22.41,0a8.31,8.31,0,0,0-8.53,8.56c0,17.84,0,49.48,0,70.74C255.09,377.17,271.22,361,286.94,345.23Z" transform="translate(-166.24 -304.57)"/><path class="cls-2" d="M248.89,409.82a2,2,0,0,0-.58,1.4c0,3.29,0,6.57,0,9.85a5.51,5.51,0,0,0,5.58,5.65c3.28,0,6.57,0,9.85,0a9,9,0,0,0,5.82-2.11c1.88-1.6,7.18-6.69,7.18-6.69l2.37,1.32.95-1a4.68,4.68,0,0,1,3.41-1.48,4.66,4.66,0,0,1,4.66,4.49,4.87,4.87,0,0,1,0,.54,5.36,5.36,0,0,1,.7-.06,4.68,4.68,0,0,1,4.66,4.5c0,.2,0,.4,0,.6a4.77,4.77,0,0,1,.76-.07A4.61,4.61,0,0,1,297.4,428a4.67,4.67,0,0,1,1.49,3.24,4.86,4.86,0,0,1-.46,2.2l.63.41c1.48,1,2.86,2.09,4.25,3.19a3.25,3.25,0,0,0,2.58.86,2.8,2.8,0,0,0,2.31-2,2.76,2.76,0,0,0-.77-2.94c-.8-.79-1.6-1.58-2.39-2.38l-1.21-1.22a8.9,8.9,0,0,1-1-1.09c-.35-.51-.65-1.12,0-1.64s1.41.14,1.86.51c.71.59,1.32,1.3,2,2l2.34,2.38a3,3,0,0,0,4.35.25,3,3,0,0,0-.17-4.42c-1.43-1.45-2.85-2.9-4.28-4.33a1.49,1.49,0,0,1-.32-1.8,1.44,1.44,0,0,1,1.8.26c1.47,1.51,2.95,3,4.43,4.49s3.1,1.55,4.32.4a3.13,3.13,0,0,0-.11-4.55q-6.53-6.76-13.09-13.51c-1.69-1.73-3.25-1.69-5,0-1.53,1.5-3,3.07-4.59,4.49a6.8,6.8,0,0,1-9.41-.38c-2.51-2.61-2.44-6.19.21-9,2.07-2.2,4.18-4.37,6.27-6.56.39-.4.76-.82,1.34-1.45-2.14,0-3.94,0-5.74,0a15.37,15.37,0,0,1-9.78-3.53c-2.3-1.88-4.65-3.72-7-5.57-11.25,11.34-21.3,21.53-21.52,21.75Z" transform="translate(-166.24 -304.57)"/><path class="cls-1" d="M285.44,423.23l.14-.18a2.67,2.67,0,0,0-4.05-3.46L279.26,422,277.47,424a2.67,2.67,0,0,0,3.74,3.8c.05-.06.12-.1.17-.16l2.69-2.88Z" transform="translate(-166.24 -304.57)"/><path class="cls-1" d="M287.05,424.41a1.3,1.3,0,0,0-.18.15l-1.05,1.13-3,3.23-.14.19a2.67,2.67,0,0,0,4.06,3.46l3.85-4.15.21-.21a2.68,2.68,0,0,0-.14-3.78A2.65,2.65,0,0,0,287.05,424.41Z" transform="translate(-166.24 -304.57)"/><path class="cls-1" d="M296.05,429.45a2.68,2.68,0,0,0-3.71.07s0,0-.07.07L288.21,434a2.67,2.67,0,1,0,3.91,3.64l4.07-4.36a2.73,2.73,0,0,0,.55-.9A2.68,2.68,0,0,0,296.05,429.45Z" transform="translate(-166.24 -304.57)"/><path class="cls-3" d="M364.15,400.55a9.4,9.4,0,0,0-3-7.29q-18.67-18.56-37.28-37.19c-1.3-1.3-1.31-2.11-.06-3.41,1.1-1.16,2.19-2.33,3.31-3.46l21.35-21.57q6.82-6.87,13.67-13.72a7.7,7.7,0,0,0,1.1-1.33c2.43-4-.38-8-3.86-7.88-2.27.06-4.56.06-6.84,0-4.75-.12-9.5,0-14.25-.06a14.29,14.29,0,0,0-10.88,4.62c-1.32,1.39-69.51,69.9-79.09,79.25v17.18s9.88-10,21.08-21.31c13-13.12,27.69-28.08,30.55-31.25,1.21-1.33,2.13-2.23,3.52-1.15.34.27.63.58,1,.88,6.27,5.76,59.77,60.78,59.77,60.78S364.09,402.61,364.15,400.55Z" transform="translate(-166.24 -304.57)"/><path class="cls-4" d="M310.21,501.21c-.06-1-.13-2.17-.18-3.07l-.52.36c-6.76,5.24-14,4.89-21.14,1.46s-10.69-11.58-9.71-20.31c1.2-10.6,7.66-17.26,17.75-18.15,5.34-.48,10.54,0,15.26,3.09a16.88,16.88,0,0,1,8,13.73c.4,7.56.1,15.16.1,22.89ZM288.5,481.89c0,7.14,4.17,11.63,10.86,11.66,6.3,0,10.72-4.76,10.79-11.67.07-7.19-4.21-11.75-11-11.75C292.81,470.12,288.51,474.87,288.5,481.89Z" transform="translate(-166.24 -304.57)"/><path class="cls-4" d="M236,461.34c6.77.07,12.81,1.84,16.89,8,4.6,6.9,4.89,14.43,1.72,22-3.05,7.28-9,10.35-16.09,10.85a29.64,29.64,0,0,1-9.57-.84c-7.29-2-11.73-7.08-12.91-15.09-1.13-7.65,0-14.68,5.84-20C225.88,462.5,230.82,461.38,236,461.34Zm-10.34,20.33c0,9.62,8.25,15.05,15.88,10.47,4.59-2.77,6.4-10.4,3.83-16.2a9.27,9.27,0,0,0-5.88-5.35C232,468.23,225.6,473.32,225.61,481.67Z" transform="translate(-166.24 -304.57)"/><path class="cls-4" d="M391.61,461.49c6.77.06,12.82,1.83,16.89,7.94,4.61,6.9,4.9,14.44,1.73,22-3.05,7.28-9,10.36-16.1,10.85a29.6,29.6,0,0,1-9.56-.84c-7.3-1.95-11.73-7.08-12.91-15.09-1.14-7.65,0-14.67,5.83-20C381.54,462.64,386.49,461.52,391.61,461.49Zm-10.33,20.32c0,9.62,8.24,15.06,15.87,10.47,4.6-2.76,6.4-10.4,3.84-16.2a9.27,9.27,0,0,0-5.89-5.34C387.62,468.37,381.26,473.47,381.28,481.81Z" transform="translate(-166.24 -304.57)"/><path class="cls-4" d="M272.72,502.42H263V452.66h9.71Z" transform="translate(-166.24 -304.57)"/><path class="cls-4" d="M166.24,502.43h0Z" transform="translate(-166.24 -304.57)"/><path class="cls-4" d="M191.09,474.82l21.72-22.15H199.37l-22.81,23.48V452.67H166.24v49.76h10.31c0-3.93,0-12.32,0-12.32s5.13-5.62,7.63-8l19.14,20.32h12.15Z" transform="translate(-166.24 -304.57)"/><path class="cls-4" d="M358.46,467.17c-7-4.37-14.44-4.24-21.73-.28-.46.25-.9.54-1.68,1V452.66h-10c0,.17,0,.36,0,.56v25.36c0,2.61.07,5.06.12,7.11a16.08,16.08,0,0,0,12.63,15.8,35.38,35.38,0,0,0,10.67.88c9.82-.57,16.37-6.52,17.66-16.17C367.18,478.55,365.44,471.52,358.46,467.17Zm-12.89,27.18c-6.55,0-10.71-4.26-10.7-11s4.24-11,10.87-11,10.83,4.28,10.86,10.86C356.63,490,352.27,494.36,345.57,494.35Z" transform="translate(-166.24 -304.57)"/><path class="cls-4" d="M429.22,474.83c1.54-3.88,5.32-4.06,8.88-4.13l5.2-.11,2.95-8.74c-3.84,0-8.85-.08-13.22.11-3.77.16-7.43,1.13-10.27,3.72a13.91,13.91,0,0,0-4.46,8.3,61,61,0,0,0-.05,7.65v20.81h10.43C428.7,500.48,428.38,477,429.22,474.83Z" transform="translate(-166.24 -304.57)"/></svg>