<svg id="Layer_1" data-name="Layer 1" xmlns="http://www.w3.org/2000/svg" viewBox="0 0 366.87 81.81"><defs><style>.cls-1{fill:#139457;}.cls-2{fill:#183761;}.cls-3{fill:#139356;}.cls-4{fill:#19355f;}</style></defs><path class="cls-1" d="M192.16,467.07c-.18-.18-9.66-9.76-18.92-19.05a10.3,10.3,0,0,0-1.73,1.3c-.63.56-1.24,1.13-1.92,1.67-1.48,1.16-1.62,1.37-2.39,2a8,8,0,0,1-5.18,1.6c-2.23,0-4.46,0-6.7,0-.31,0-.62.08-.93.1-1.18.07-1.82,1-2.57,1.7-1.46,1.35-2.8,2.83-4.18,4.28a2,2,0,0,0-.55,1.92,2.36,2.36,0,0,0,3.95,1.13c1-1,2-2,3-2.92a3.41,3.41,0,0,1,4.95.09c1.1,1.13,2.2,2.27,3.33,3.37,2.39,2.34,4.9,4.57,7.17,7a7.05,7.05,0,0,0,5.59,2.31h6.56c2.37,0,4.73,0,7.1,0a4.6,4.6,0,0,0,3.66-1.44,5,5,0,0,0,1.2-3.11,1.12,1.12,0,0,0-.33-.83Z" transform="translate(-122.78 -398.99)"/><path class="cls-2" d="M155.05,438h-3.92v4h3.92Z" transform="translate(-122.78 -398.99)"/><path class="cls-2" d="M156.52,438v4h3.92v-4Z" transform="translate(-122.78 -398.99)"/><path class="cls-2" d="M155.08,443.47h-4v3.94h4Z" transform="translate(-122.78 -398.99)"/><path class="cls-2" d="M156.52,447.42h3.92v-3.95h-3.92Z" transform="translate(-122.78 -398.99)"/><path class="cls-2" d="M146.4,423.84h0c0-6.69,0-13.38,0-20.08a4.49,4.49,0,0,0-4.7-4.75H128a5.07,5.07,0,0,0-5.21,5.23c0,10.9,0,30.24,0,43.23C126.93,443.35,136.79,433.48,146.4,423.84Z" transform="translate(-122.78 -398.99)"/><path class="cls-2" d="M123.15,463.31a1.2,1.2,0,0,0-.36.86c0,2,0,4,0,6a3.38,3.38,0,0,0,3.41,3.46q3,0,6,0a5.5,5.5,0,0,0,3.55-1.29c1.15-1,4.39-4.09,4.39-4.09l1.45.81.58-.62a2.86,2.86,0,0,1,2.09-.91,2.85,2.85,0,0,1,2.84,2.75,1.82,1.82,0,0,1,0,.33,3.13,3.13,0,0,1,.43,0,2.87,2.87,0,0,1,2.85,2.75,2.36,2.36,0,0,1,0,.37,2.5,2.5,0,0,1,.47-.05,2.87,2.87,0,0,1,2.85,2.75,2.91,2.91,0,0,1-.28,1.34l.39.25c.9.6,1.74,1.28,2.59,1.95a2,2,0,0,0,1.58.53,1.73,1.73,0,0,0,1.41-1.22,1.69,1.69,0,0,0-.47-1.79L157.45,476l-.73-.74a6.7,6.7,0,0,1-.64-.67c-.21-.31-.4-.69,0-1s.86.08,1.13.31c.44.36.81.79,1.21,1.19l1.43,1.45a1.85,1.85,0,0,0,2.66.15,1.82,1.82,0,0,0-.11-2.7l-2.62-2.64a.92.92,0,0,1-.19-1.1.88.88,0,0,1,1.1.16c.9.92,1.8,1.83,2.71,2.74a1.81,1.81,0,0,0,2.64.25,1.91,1.91,0,0,0-.07-2.78q-4-4.14-8-8.26a1.86,1.86,0,0,0-3,0c-.93.92-1.83,1.88-2.8,2.74a4.16,4.16,0,0,1-5.76-.23,3.8,3.8,0,0,1,.13-5.5c1.27-1.35,2.56-2.67,3.84-4l.81-.89c-1.3,0-2.4,0-3.5,0a9.43,9.43,0,0,1-6-2.15c-1.41-1.16-2.84-2.28-4.27-3.41-6.88,6.93-13,13.16-13.16,13.29Z" transform="translate(-122.78 -398.99)"/><path class="cls-1" d="M145.48,471.5l.09-.11a1.63,1.63,0,0,0-2.48-2.11l-1.38,1.48-1.1,1.18a1.63,1.63,0,0,0,2.28,2.32l.11-.09,1.64-1.76Z" transform="translate(-122.78 -398.99)"/><path class="cls-1" d="M146.46,472.22l-.11.1-.64.69-1.84,2a1,1,0,0,1-.08.11,1.63,1.63,0,0,0,2.48,2.12l2.35-2.53.13-.14a1.63,1.63,0,0,0-2.29-2.32Z" transform="translate(-122.78 -398.99)"/><path class="cls-1" d="M152,475.3a1.62,1.62,0,0,0-2.26.05l0,0-2.48,2.66a1.64,1.64,0,0,0,2.4,2.23l2.48-2.67a1.74,1.74,0,0,0,.34-.55A1.65,1.65,0,0,0,152,475.3Z" transform="translate(-122.78 -398.99)"/><path class="cls-3" d="M193.58,457.64a5.75,5.75,0,0,0-1.84-4.45Q180.33,441.85,169,430.46c-.8-.79-.8-1.29,0-2.08s1.34-1.42,2-2.11L184,413.09l8.35-8.39a4.71,4.71,0,0,0,.68-.81,3,3,0,0,0-2.36-4.82c-1.39,0-2.79,0-4.18,0-2.91-.07-5.81,0-8.71,0a8.76,8.76,0,0,0-6.65,2.83c-.8.85-42.47,42.71-48.33,48.43v10.49s6-6.12,12.88-13c8-8,16.92-17.16,18.67-19.09.74-.82,1.3-1.37,2.15-.71.21.17.39.36.58.54,3.84,3.52,36.53,37.14,36.53,37.14S193.54,458.9,193.58,457.64Z" transform="translate(-122.78 -398.99)"/><path class="cls-4" d="M353.61,463.53c-.06-1-.13-2.17-.19-3.07l-.51.36c-6.76,5.23-14,4.89-21.15,1.46-7-3.36-10.69-11.58-9.7-20.31,1.19-10.6,7.66-17.26,17.75-18.16,5.33-.47,10.54.05,15.26,3.1a16.87,16.87,0,0,1,8,13.73c.39,7.56.09,15.16.09,22.89ZM331.9,444.2c0,7.15,4.16,11.64,10.85,11.66,6.31,0,10.73-4.75,10.8-11.67.06-7.18-4.21-11.74-11-11.75C336.21,432.44,331.91,437.19,331.9,444.2Z" transform="translate(-122.78 -398.99)"/><path class="cls-4" d="M279.34,423.66c6.77.07,12.82,1.84,16.9,7.95,4.6,6.9,4.89,14.43,1.72,22-3,7.28-9,10.35-16.09,10.85a29.64,29.64,0,0,1-9.57-.84c-7.3-1.95-11.73-7.08-12.91-15.09-1.14-7.65,0-14.68,5.84-20C269.27,424.82,274.22,423.7,279.34,423.66ZM269,444c0,9.63,8.24,15.06,15.87,10.48,4.6-2.77,6.4-10.4,3.84-16.2a9.26,9.26,0,0,0-5.89-5.35C275.35,430.54,269,435.64,269,444Z" transform="translate(-122.78 -398.99)"/><path class="cls-4" d="M435,423.8c6.77.07,12.82,1.84,16.89,7.95,4.6,6.9,4.89,14.43,1.72,22-3.05,7.28-9,10.36-16.09,10.85a29.6,29.6,0,0,1-9.56-.84c-7.3-1.95-11.73-7.08-12.92-15.09-1.13-7.65,0-14.68,5.84-20C424.94,425,429.88,423.84,435,423.8Zm-10.34,20.33c0,9.62,8.25,15.05,15.88,10.47,4.6-2.77,6.4-10.4,3.83-16.2a9.25,9.25,0,0,0-5.88-5.35C431,430.69,424.66,435.78,424.67,444.13Z" transform="translate(-122.78 -398.99)"/><path class="cls-4" d="M316.12,464.74h-9.71V415h9.71Z" transform="translate(-122.78 -398.99)"/><path class="cls-4" d="M209.64,464.75h0Z" transform="translate(-122.78 -398.99)"/><path class="cls-4" d="M234.49,437.13,256.21,415H242.77L220,438.47V415H209.64v49.76h10.3c0-3.94,0-12.33,0-12.33s5.14-5.61,7.64-8c.35.36,19.14,20.32,19.14,20.32h12.15Z" transform="translate(-122.78 -398.99)"/><path class="cls-4" d="M401.85,429.49c-7-4.37-14.43-4.24-21.72-.28-.47.25-.91.53-1.68,1V415h-10c0,.17,0,.35,0,.56v25.35c0,2.62.06,5.06.11,7.11a16.1,16.1,0,0,0,12.64,15.81,35.7,35.7,0,0,0,10.67.88c9.82-.58,16.36-6.52,17.66-16.17C410.58,440.86,408.84,433.84,401.85,429.49ZM389,456.67c-6.55,0-10.7-4.26-10.7-11s4.25-11,10.88-11S400,439,400,445.55C400,452.29,395.67,456.68,389,456.67Z" transform="translate(-122.78 -398.99)"/><path class="cls-4" d="M472.62,437.15c1.54-3.88,5.32-4.06,8.88-4.14l5.19-.1,3-8.74c-3.84,0-8.86-.08-13.23.11-3.76.16-7.42,1.13-10.26,3.72a13.89,13.89,0,0,0-4.46,8.3,61,61,0,0,0-.05,7.65v20.81h10.42C472.1,462.8,471.78,439.28,472.62,437.15Z" transform="translate(-122.78 -398.99)"/></svg>