<svg id="Layer_1" data-name="Layer 1" xmlns="http://www.w3.org/2000/svg" viewBox="0 0 133.76 154.51"><defs><style>.cls-1{fill:#139457;}.cls-2{fill:#183761;}.cls-3{fill:#139356;}</style></defs><path class="cls-1" d="M370.39,433.14c-.33-.34-18.23-18.42-35.72-36a19.93,19.93,0,0,0-3.27,2.45c-1.2,1.07-2.34,2.15-3.63,3.16-2.79,2.2-3.06,2.59-4.52,3.75a15.28,15.28,0,0,1-9.78,3c-4.22,0-8.43,0-12.64,0-.59,0-1.18.15-1.77.19-2.23.14-3.44,1.91-4.85,3.21-2.75,2.56-5.3,5.35-7.89,8.08a3.65,3.65,0,0,0-1.05,3.63,4.47,4.47,0,0,0,7.47,2.14c1.94-1.79,3.77-3.69,5.67-5.52a6.45,6.45,0,0,1,9.36.17c2.08,2.15,4.15,4.28,6.28,6.37,4.52,4.42,9.26,8.63,13.55,13.26a13.32,13.32,0,0,0,10.56,4.35h12.39c4.47,0,8.94,0,13.41,0,2.62,0,5.07-.6,6.9-2.7a9.34,9.34,0,0,0,2.27-5.87,2.15,2.15,0,0,0-.62-1.58Z" transform="translate(-239.36 -304.57)"/><path class="cls-2" d="M300.32,378.22H292.9v7.54h7.42Z" transform="translate(-239.36 -304.57)"/><path class="cls-2" d="M303.09,378.24v7.55h7.39v-7.55Z" transform="translate(-239.36 -304.57)"/><path class="cls-2" d="M300.36,388.56h-7.45V396h7.45Z" transform="translate(-239.36 -304.57)"/><path class="cls-2" d="M303.09,396h7.41v-7.45h-7.41Z" transform="translate(-239.36 -304.57)"/><path class="cls-2" d="M284,351.49h0c0-12.64,0-25.28,0-37.92,0-5.33-3.57-8.95-8.87-9q-12.93,0-25.87,0a9.58,9.58,0,0,0-9.84,9.87c0,20.6,0,57.11,0,81.64C247.21,388.35,265.82,369.71,284,351.49Z" transform="translate(-239.36 -304.57)"/><path class="cls-2" d="M240.05,426a2.32,2.32,0,0,0-.66,1.62c0,3.79,0,7.58,0,11.37a6.37,6.37,0,0,0,6.44,6.52c3.79.05,7.58,0,11.37,0a10.27,10.27,0,0,0,6.71-2.43c2.18-1.84,8.29-7.72,8.29-7.72l2.74,1.53,1.1-1.18a5.38,5.38,0,0,1,9.31,3.47c0,.21,0,.42,0,.63a5.29,5.29,0,0,1,.8-.07,5.37,5.37,0,0,1,5.38,5.19,5.3,5.3,0,0,1,0,.69,5.14,5.14,0,0,1,.88-.08,5.38,5.38,0,0,1,4.84,7.72l.74.48c1.7,1.13,3.29,2.4,4.9,3.67a3.74,3.74,0,0,0,3,1,3.24,3.24,0,0,0,2.66-2.3,3.17,3.17,0,0,0-.89-3.39c-.93-.91-1.85-1.83-2.76-2.75l-1.39-1.4a9.6,9.6,0,0,1-1.2-1.27c-.4-.59-.76-1.29-.05-1.88s1.63.16,2.15.58c.82.69,1.52,1.5,2.27,2.26s1.8,1.83,2.71,2.74a3.5,3.5,0,0,0,5,.28c1.45-1.42,1.37-3.51-.21-5.1s-3.28-3.34-4.94-5a1.74,1.74,0,0,1-.37-2.08,1.66,1.66,0,0,1,2.08.31c1.7,1.73,3.41,3.45,5.12,5.18s3.58,1.79,5,.46a3.62,3.62,0,0,0-.12-5.26q-7.53-7.8-15.11-15.58c-2-2-3.75-2-5.73,0-1.76,1.74-3.45,3.54-5.3,5.18A7.84,7.84,0,0,1,283.9,429c-2.89-3-2.81-7.15.25-10.4,2.39-2.54,4.83-5.05,7.24-7.57.44-.46.87-.94,1.54-1.67-2.47,0-4.55,0-6.62,0A17.73,17.73,0,0,1,275,405.28c-2.66-2.18-5.37-4.3-8.08-6.43-13,13.09-24.59,24.85-24.83,25.11Z" transform="translate(-239.36 -304.57)"/><path class="cls-1" d="M282.24,441.52c.06-.07.1-.14.15-.21a3.08,3.08,0,0,0-4.67-4l-2.61,2.81L273,442.35a3.08,3.08,0,0,0,4.32,4.38c.06-.06.14-.11.2-.18l3.1-3.32Z" transform="translate(-239.36 -304.57)"/><path class="cls-1" d="M284.09,442.88l-.21.17-1.21,1.31-3.47,3.73-.16.21a3.07,3.07,0,0,0,.31,4.15,3.1,3.1,0,0,0,4.37-.15l4.45-4.79.23-.25a3.07,3.07,0,0,0-4.31-4.38Z" transform="translate(-239.36 -304.57)"/><path class="cls-1" d="M294.48,448.7a3.08,3.08,0,0,0-4.28.08l-.08.07-4.69,5A3.09,3.09,0,0,0,290,458.1l4.69-5a3,3,0,0,0,.63-1A3.07,3.07,0,0,0,294.48,448.7Z" transform="translate(-239.36 -304.57)"/><path class="cls-3" d="M373.08,415.34a10.84,10.84,0,0,0-3.48-8.41Q348,385.51,326.58,364c-1.51-1.5-1.52-2.44-.08-3.94,1.28-1.33,2.53-2.68,3.82-4q12.31-12.45,24.65-24.89,7.88-7.94,15.77-15.84a9,9,0,0,0,1.28-1.54c2.8-4.57-.44-9.19-4.46-9.09-2.62.07-5.27.07-7.9,0-5.48-.14-11-.05-16.44-.07A16.51,16.51,0,0,0,330.66,310c-1.52,1.61-80.22,80.67-91.28,91.47v19.82s11.39-11.56,24.32-24.59c15-15.15,32-32.41,35.26-36.06,1.39-1.54,2.46-2.58,4.06-1.33.4.3.73.67,1.1,1,7.24,6.65,69,70.15,69,70.15S373,417.72,373.08,415.34Z" transform="translate(-239.36 -304.57)"/></svg>